<mxfile host="app.diagrams.net" agent="Mozilla/5.0 (X11; Linux x86_64) AppleWebKit/537.36 (KHTML, like Gecko) Chrome/127.0.0.0 Safari/537.36" version="24.7.7">
  <diagram name="Page-1" id="c3BF2ygDe9qbJUDc34sD">
    <mxGraphModel dx="8014" dy="9879" grid="1" gridSize="10" guides="1" tooltips="1" connect="1" arrows="1" fold="1" page="1" pageScale="2.5" pageWidth="850" pageHeight="1100" math="0" shadow="0">
      <root>
        <mxCell id="0" />
        <mxCell id="1" parent="0" />
        <mxCell id="K3HkH2EL4yBhqLBcemKd-1" value="" style="rounded=0;whiteSpace=wrap;html=1;" parent="1" vertex="1">
          <mxGeometry x="-3980" y="-7220" width="2630" height="60" as="geometry" />
        </mxCell>
        <mxCell id="K3HkH2EL4yBhqLBcemKd-10" value="" style="rounded=0;whiteSpace=wrap;html=1;fillColor=#008a00;fontColor=#ffffff;strokeColor=#005700;" parent="1" vertex="1">
          <mxGeometry x="-3910" y="-7220" width="200" height="60" as="geometry" />
        </mxCell>
        <mxCell id="K3HkH2EL4yBhqLBcemKd-11" value="&lt;span style=&quot;font-size: 35px;&quot;&gt;!&lt;/span&gt;" style="rounded=0;whiteSpace=wrap;html=1;fillColor=#fff2cc;strokeColor=#d6b656;" parent="1" vertex="1">
          <mxGeometry x="-3650" y="-7220" width="60" height="60" as="geometry" />
        </mxCell>
        <mxCell id="K3HkH2EL4yBhqLBcemKd-17" value="&lt;font style=&quot;font-size: 50px;&quot;&gt;Head&lt;br&gt;y&lt;/font&gt;" style="text;html=1;align=center;verticalAlign=middle;whiteSpace=wrap;rounded=0;" parent="1" vertex="1">
          <mxGeometry x="-3760" y="-7060" width="170" height="70" as="geometry" />
        </mxCell>
        <mxCell id="K3HkH2EL4yBhqLBcemKd-21" value="" style="rounded=0;whiteSpace=wrap;html=1;" parent="1" vertex="1">
          <mxGeometry x="-3530" y="-7220" width="610" height="60" as="geometry" />
        </mxCell>
        <mxCell id="K3HkH2EL4yBhqLBcemKd-24" value="&lt;span style=&quot;font-size: 35px;&quot;&gt;X&lt;/span&gt;" style="rounded=0;whiteSpace=wrap;html=1;fillColor=#fff2cc;strokeColor=#d6b656;" parent="1" vertex="1">
          <mxGeometry x="-3590" y="-7220" width="60" height="60" as="geometry" />
        </mxCell>
        <mxCell id="K3HkH2EL4yBhqLBcemKd-26" value="&lt;span style=&quot;font-size: 35px;&quot;&gt;md&lt;/span&gt;" style="rounded=0;whiteSpace=wrap;html=1;fillColor=#fff2cc;strokeColor=#d6b656;" parent="1" vertex="1">
          <mxGeometry x="-3710" y="-7220" width="60" height="60" as="geometry" />
        </mxCell>
        <mxCell id="K3HkH2EL4yBhqLBcemKd-27" value="" style="endArrow=classic;html=1;rounded=0;" parent="1" edge="1">
          <mxGeometry width="50" height="50" relative="1" as="geometry">
            <mxPoint x="-3670" y="-7100" as="sourcePoint" />
            <mxPoint x="-3670" y="-7160" as="targetPoint" />
          </mxGeometry>
        </mxCell>
        <mxCell id="K3HkH2EL4yBhqLBcemKd-28" value="&lt;span style=&quot;font-size: 50px;&quot;&gt;break&lt;/span&gt;" style="text;html=1;align=center;verticalAlign=middle;whiteSpace=wrap;rounded=0;" parent="1" vertex="1">
          <mxGeometry x="-1510" y="-7070" width="170" height="70" as="geometry" />
        </mxCell>
        <mxCell id="K3HkH2EL4yBhqLBcemKd-2" value="&lt;font style=&quot;font-size: 35px;&quot;&gt;md&lt;/font&gt;" style="rounded=0;whiteSpace=wrap;html=1;fillColor=#fff2cc;strokeColor=#d6b656;" parent="1" vertex="1">
          <mxGeometry x="-3980" y="-7220" width="70" height="60" as="geometry" />
        </mxCell>
        <mxCell id="K3HkH2EL4yBhqLBcemKd-38" value="" style="endArrow=classic;html=1;rounded=0;" parent="1" edge="1">
          <mxGeometry width="50" height="50" relative="1" as="geometry">
            <mxPoint x="-1431" y="-7090" as="sourcePoint" />
            <mxPoint x="-1431" y="-7150" as="targetPoint" />
          </mxGeometry>
        </mxCell>
        <mxCell id="K3HkH2EL4yBhqLBcemKd-44" value="" style="rounded=0;whiteSpace=wrap;html=1;fillColor=#fff2cc;strokeColor=#d6b656;" parent="1" vertex="1">
          <mxGeometry x="-1460" y="-7220" width="60" height="60" as="geometry" />
        </mxCell>
        <mxCell id="K3HkH2EL4yBhqLBcemKd-45" value="" style="rounded=0;whiteSpace=wrap;html=1;fillColor=#008a00;fontColor=#ffffff;strokeColor=#005700;" parent="1" vertex="1">
          <mxGeometry x="-2850" y="-7220" width="200" height="60" as="geometry" />
        </mxCell>
        <mxCell id="K3HkH2EL4yBhqLBcemKd-46" value="&lt;font style=&quot;font-size: 35px;&quot;&gt;md&lt;/font&gt;" style="rounded=0;whiteSpace=wrap;html=1;fillColor=#fff2cc;strokeColor=#d6b656;" parent="1" vertex="1">
          <mxGeometry x="-2920" y="-7220" width="70" height="60" as="geometry" />
        </mxCell>
        <mxCell id="K3HkH2EL4yBhqLBcemKd-47" value="&lt;span style=&quot;font-size: 35px;&quot;&gt;y&lt;/span&gt;" style="rounded=0;whiteSpace=wrap;html=1;fillColor=#fff2cc;strokeColor=#d6b656;" parent="1" vertex="1">
          <mxGeometry x="-2590" y="-7220" width="60" height="60" as="geometry" />
        </mxCell>
        <mxCell id="K3HkH2EL4yBhqLBcemKd-48" value="&lt;font style=&quot;font-size: 35px;&quot;&gt;X&lt;/font&gt;" style="text;html=1;align=center;verticalAlign=middle;whiteSpace=wrap;rounded=0;" parent="1" vertex="1">
          <mxGeometry x="-2700" y="-7060" width="170" height="70" as="geometry" />
        </mxCell>
        <mxCell id="K3HkH2EL4yBhqLBcemKd-49" value="" style="rounded=0;whiteSpace=wrap;html=1;" parent="1" vertex="1">
          <mxGeometry x="-2470" y="-7220" width="210" height="60" as="geometry" />
        </mxCell>
        <mxCell id="K3HkH2EL4yBhqLBcemKd-50" value="&lt;span style=&quot;font-size: 35px;&quot;&gt;z&lt;/span&gt;" style="rounded=0;whiteSpace=wrap;html=1;fillColor=#fff2cc;strokeColor=#d6b656;" parent="1" vertex="1">
          <mxGeometry x="-2530" y="-7220" width="60" height="60" as="geometry" />
        </mxCell>
        <mxCell id="K3HkH2EL4yBhqLBcemKd-51" value="&lt;span style=&quot;font-size: 35px;&quot;&gt;md&lt;/span&gt;" style="rounded=0;whiteSpace=wrap;html=1;fillColor=#fff2cc;strokeColor=#d6b656;" parent="1" vertex="1">
          <mxGeometry x="-2650" y="-7220" width="60" height="60" as="geometry" />
        </mxCell>
        <mxCell id="K3HkH2EL4yBhqLBcemKd-52" value="" style="endArrow=classic;html=1;rounded=0;" parent="1" edge="1">
          <mxGeometry width="50" height="50" relative="1" as="geometry">
            <mxPoint x="-2610" y="-7100" as="sourcePoint" />
            <mxPoint x="-2610" y="-7160" as="targetPoint" />
          </mxGeometry>
        </mxCell>
        <mxCell id="K3HkH2EL4yBhqLBcemKd-53" value="" style="rounded=0;whiteSpace=wrap;html=1;fillColor=#008a00;fontColor=#ffffff;strokeColor=#005700;" parent="1" vertex="1">
          <mxGeometry x="-2200" y="-7220" width="200" height="60" as="geometry" />
        </mxCell>
        <mxCell id="K3HkH2EL4yBhqLBcemKd-54" value="&lt;font style=&quot;font-size: 35px;&quot;&gt;md&lt;/font&gt;" style="rounded=0;whiteSpace=wrap;html=1;fillColor=#fff2cc;strokeColor=#d6b656;" parent="1" vertex="1">
          <mxGeometry x="-2270" y="-7220" width="70" height="60" as="geometry" />
        </mxCell>
        <mxCell id="K3HkH2EL4yBhqLBcemKd-55" value="&lt;span style=&quot;font-size: 35px;&quot;&gt;x&lt;/span&gt;" style="rounded=0;whiteSpace=wrap;html=1;fillColor=#fff2cc;strokeColor=#d6b656;" parent="1" vertex="1">
          <mxGeometry x="-1940" y="-7220" width="60" height="60" as="geometry" />
        </mxCell>
        <mxCell id="K3HkH2EL4yBhqLBcemKd-56" value="&lt;font style=&quot;font-size: 50px;&quot;&gt;Tail&lt;br&gt;Z&lt;/font&gt;" style="text;html=1;align=center;verticalAlign=middle;whiteSpace=wrap;rounded=0;" parent="1" vertex="1">
          <mxGeometry x="-2050" y="-7060" width="170" height="70" as="geometry" />
        </mxCell>
        <mxCell id="K3HkH2EL4yBhqLBcemKd-57" value="" style="rounded=0;whiteSpace=wrap;html=1;" parent="1" vertex="1">
          <mxGeometry x="-1820" y="-7220" width="360" height="60" as="geometry" />
        </mxCell>
        <mxCell id="K3HkH2EL4yBhqLBcemKd-58" value="&lt;span style=&quot;font-size: 35px;&quot;&gt;!&lt;/span&gt;" style="rounded=0;whiteSpace=wrap;html=1;fillColor=#fff2cc;strokeColor=#d6b656;" parent="1" vertex="1">
          <mxGeometry x="-1880" y="-7220" width="60" height="60" as="geometry" />
        </mxCell>
        <mxCell id="K3HkH2EL4yBhqLBcemKd-59" value="&lt;span style=&quot;font-size: 35px;&quot;&gt;md&lt;/span&gt;" style="rounded=0;whiteSpace=wrap;html=1;fillColor=#fff2cc;strokeColor=#d6b656;" parent="1" vertex="1">
          <mxGeometry x="-2000" y="-7220" width="60" height="60" as="geometry" />
        </mxCell>
        <mxCell id="K3HkH2EL4yBhqLBcemKd-60" value="" style="endArrow=classic;html=1;rounded=0;" parent="1" edge="1">
          <mxGeometry width="50" height="50" relative="1" as="geometry">
            <mxPoint x="-1960" y="-7100" as="sourcePoint" />
            <mxPoint x="-1960" y="-7160" as="targetPoint" />
          </mxGeometry>
        </mxCell>
        <mxCell id="i8Awva0lIzvKU5chbaIe-17" style="edgeStyle=orthogonalEdgeStyle;rounded=0;orthogonalLoop=1;jettySize=auto;html=1;entryX=0.5;entryY=0;entryDx=0;entryDy=0;strokeWidth=3;" edge="1" parent="1" source="K3HkH2EL4yBhqLBcemKd-61" target="K3HkH2EL4yBhqLBcemKd-66">
          <mxGeometry relative="1" as="geometry" />
        </mxCell>
        <mxCell id="K3HkH2EL4yBhqLBcemKd-61" value="&lt;font style=&quot;font-size: 50px;&quot;&gt;malloc(size)&lt;/font&gt;" style="rounded=0;whiteSpace=wrap;html=1;" parent="1" vertex="1">
          <mxGeometry x="2175" y="-6100" width="340" height="140" as="geometry" />
        </mxCell>
        <mxCell id="i8Awva0lIzvKU5chbaIe-11" style="edgeStyle=orthogonalEdgeStyle;rounded=0;orthogonalLoop=1;jettySize=auto;html=1;strokeWidth=3;" edge="1" parent="1" source="K3HkH2EL4yBhqLBcemKd-83" target="K3HkH2EL4yBhqLBcemKd-297">
          <mxGeometry relative="1" as="geometry" />
        </mxCell>
        <mxCell id="K3HkH2EL4yBhqLBcemKd-83" value="&lt;font style=&quot;font-size: 50px;&quot;&gt;i = next free space node&lt;/font&gt;" style="rounded=0;whiteSpace=wrap;html=1;" parent="1" vertex="1">
          <mxGeometry x="2810" y="-5680" width="470" height="140" as="geometry" />
        </mxCell>
        <mxCell id="i8Awva0lIzvKU5chbaIe-1" style="edgeStyle=orthogonalEdgeStyle;rounded=0;orthogonalLoop=1;jettySize=auto;html=1;entryX=0;entryY=0.5;entryDx=0;entryDy=0;strokeWidth=3;" edge="1" parent="1" source="K3HkH2EL4yBhqLBcemKd-93" target="K3HkH2EL4yBhqLBcemKd-106">
          <mxGeometry relative="1" as="geometry" />
        </mxCell>
        <mxCell id="i8Awva0lIzvKU5chbaIe-6" style="edgeStyle=orthogonalEdgeStyle;rounded=0;orthogonalLoop=1;jettySize=auto;html=1;exitX=0.5;exitY=1;exitDx=0;exitDy=0;entryX=0.5;entryY=0;entryDx=0;entryDy=0;" edge="1" parent="1" source="K3HkH2EL4yBhqLBcemKd-93" target="K3HkH2EL4yBhqLBcemKd-96">
          <mxGeometry relative="1" as="geometry" />
        </mxCell>
        <mxCell id="K3HkH2EL4yBhqLBcemKd-93" value="&lt;span style=&quot;font-size: 50px;&quot;&gt;i == head&lt;/span&gt;" style="rhombus;whiteSpace=wrap;html=1;" parent="1" vertex="1">
          <mxGeometry x="2205" y="-5500" width="280" height="200" as="geometry" />
        </mxCell>
        <mxCell id="i8Awva0lIzvKU5chbaIe-3" style="edgeStyle=orthogonalEdgeStyle;rounded=0;orthogonalLoop=1;jettySize=auto;html=1;entryX=0.5;entryY=0;entryDx=0;entryDy=0;strokeWidth=3;" edge="1" parent="1" source="K3HkH2EL4yBhqLBcemKd-96" target="K3HkH2EL4yBhqLBcemKd-279">
          <mxGeometry relative="1" as="geometry" />
        </mxCell>
        <mxCell id="K3HkH2EL4yBhqLBcemKd-96" value="&lt;span style=&quot;font-size: 50px;&quot;&gt;case 1&lt;/span&gt;" style="rounded=0;whiteSpace=wrap;html=1;" parent="1" vertex="1">
          <mxGeometry x="2220" y="-5240" width="250" height="140" as="geometry" />
        </mxCell>
        <mxCell id="K3HkH2EL4yBhqLBcemKd-97" value="&lt;h1 style=&quot;margin-top: 0px; font-size: 45px;&quot;&gt;case 1&lt;/h1&gt;&lt;p style=&quot;&quot;&gt;&lt;span style=&quot;font-size: 45px;&quot;&gt;split head into two blocks or jump head to the next block&lt;/span&gt;&lt;/p&gt;&lt;p style=&quot;&quot;&gt;&lt;br&gt;&lt;/p&gt;" style="text;html=1;whiteSpace=wrap;overflow=hidden;rounded=0;" parent="1" vertex="1">
          <mxGeometry x="-4005" y="-6680" width="1780" height="170" as="geometry" />
        </mxCell>
        <mxCell id="i8Awva0lIzvKU5chbaIe-4" style="edgeStyle=orthogonalEdgeStyle;rounded=0;orthogonalLoop=1;jettySize=auto;html=1;exitX=0.5;exitY=1;exitDx=0;exitDy=0;strokeWidth=3;" edge="1" parent="1" source="K3HkH2EL4yBhqLBcemKd-106" target="K3HkH2EL4yBhqLBcemKd-107">
          <mxGeometry relative="1" as="geometry" />
        </mxCell>
        <mxCell id="i8Awva0lIzvKU5chbaIe-21" style="edgeStyle=orthogonalEdgeStyle;rounded=0;orthogonalLoop=1;jettySize=auto;html=1;entryX=0;entryY=0.5;entryDx=0;entryDy=0;strokeWidth=3;" edge="1" parent="1" source="K3HkH2EL4yBhqLBcemKd-106" target="K3HkH2EL4yBhqLBcemKd-120">
          <mxGeometry relative="1" as="geometry" />
        </mxCell>
        <mxCell id="K3HkH2EL4yBhqLBcemKd-106" value="&lt;span style=&quot;font-size: 50px;&quot;&gt;i == Tail&lt;/span&gt;" style="rhombus;whiteSpace=wrap;html=1;" parent="1" vertex="1">
          <mxGeometry x="2760" y="-5500" width="280" height="200" as="geometry" />
        </mxCell>
        <mxCell id="i8Awva0lIzvKU5chbaIe-5" style="edgeStyle=orthogonalEdgeStyle;rounded=0;orthogonalLoop=1;jettySize=auto;html=1;entryX=0.5;entryY=0;entryDx=0;entryDy=0;" edge="1" parent="1" source="K3HkH2EL4yBhqLBcemKd-107" target="K3HkH2EL4yBhqLBcemKd-279">
          <mxGeometry relative="1" as="geometry" />
        </mxCell>
        <mxCell id="K3HkH2EL4yBhqLBcemKd-107" value="&lt;span style=&quot;font-size: 50px;&quot;&gt;case 2&lt;/span&gt;" style="rounded=0;whiteSpace=wrap;html=1;" parent="1" vertex="1">
          <mxGeometry x="2775" y="-5230" width="250" height="140" as="geometry" />
        </mxCell>
        <mxCell id="i8Awva0lIzvKU5chbaIe-2" style="edgeStyle=orthogonalEdgeStyle;rounded=0;orthogonalLoop=1;jettySize=auto;html=1;entryX=0.5;entryY=0;entryDx=0;entryDy=0;strokeWidth=3;" edge="1" parent="1" source="K3HkH2EL4yBhqLBcemKd-120" target="K3HkH2EL4yBhqLBcemKd-279">
          <mxGeometry relative="1" as="geometry">
            <Array as="points">
              <mxPoint x="3275" y="-5040" />
              <mxPoint x="2900" y="-5040" />
            </Array>
          </mxGeometry>
        </mxCell>
        <mxCell id="K3HkH2EL4yBhqLBcemKd-120" value="&lt;span style=&quot;font-size: 50px;&quot;&gt;case 3&lt;/span&gt;" style="rounded=0;whiteSpace=wrap;html=1;" parent="1" vertex="1">
          <mxGeometry x="3150" y="-5470" width="250" height="140" as="geometry" />
        </mxCell>
        <mxCell id="K3HkH2EL4yBhqLBcemKd-128" value="&lt;h1 style=&quot;margin-top: 0px; font-size: 45px;&quot;&gt;case 3&amp;nbsp;&lt;/h1&gt;&lt;p&gt;&lt;span style=&quot;font-size: 45px;&quot;&gt;&amp;nbsp;handle simulated array if neither head or tail is suitable to allocate this size&lt;/span&gt;&lt;/p&gt;" style="text;html=1;whiteSpace=wrap;overflow=hidden;rounded=0;" parent="1" vertex="1">
          <mxGeometry x="-3945" y="-5060" width="1790" height="160" as="geometry" />
        </mxCell>
        <mxCell id="K3HkH2EL4yBhqLBcemKd-129" value="" style="rounded=0;whiteSpace=wrap;html=1;" parent="1" vertex="1">
          <mxGeometry x="-4005" y="-6480" width="2630" height="60" as="geometry" />
        </mxCell>
        <mxCell id="K3HkH2EL4yBhqLBcemKd-130" value="" style="rounded=0;whiteSpace=wrap;html=1;fillColor=#008a00;fontColor=#ffffff;strokeColor=#005700;" parent="1" vertex="1">
          <mxGeometry x="-3655" y="-6480" width="90" height="60" as="geometry" />
        </mxCell>
        <mxCell id="K3HkH2EL4yBhqLBcemKd-131" value="&lt;span style=&quot;font-size: 35px;&quot;&gt;!&lt;/span&gt;" style="rounded=0;whiteSpace=wrap;html=1;fillColor=#0050ef;strokeColor=#001DBC;fontColor=#ffffff;" parent="1" vertex="1">
          <mxGeometry x="-3485" y="-6480" width="60" height="60" as="geometry" />
        </mxCell>
        <mxCell id="K3HkH2EL4yBhqLBcemKd-132" value="&lt;font style=&quot;font-size: 50px;&quot;&gt;Head&lt;br&gt;y&lt;/font&gt;" style="text;html=1;align=center;verticalAlign=middle;whiteSpace=wrap;rounded=0;fillColor=#0050ef;fontColor=#ffffff;strokeColor=#001DBC;" parent="1" vertex="1">
          <mxGeometry x="-3605" y="-6310" width="180" height="140" as="geometry" />
        </mxCell>
        <mxCell id="K3HkH2EL4yBhqLBcemKd-134" value="&lt;span style=&quot;font-size: 35px;&quot;&gt;X&lt;/span&gt;" style="rounded=0;whiteSpace=wrap;html=1;fillColor=#0050ef;strokeColor=#001DBC;fontColor=#ffffff;" parent="1" vertex="1">
          <mxGeometry x="-3425" y="-6480" width="60" height="60" as="geometry" />
        </mxCell>
        <mxCell id="K3HkH2EL4yBhqLBcemKd-135" value="&lt;span style=&quot;font-size: 35px;&quot;&gt;New&lt;/span&gt;" style="rounded=0;whiteSpace=wrap;html=1;fillColor=#0050ef;strokeColor=#001DBC;fontColor=#ffffff;" parent="1" vertex="1">
          <mxGeometry x="-3565" y="-6480" width="80" height="60" as="geometry" />
        </mxCell>
        <mxCell id="K3HkH2EL4yBhqLBcemKd-136" value="" style="endArrow=classic;html=1;rounded=0;" parent="1" edge="1">
          <mxGeometry width="50" height="50" relative="1" as="geometry">
            <mxPoint x="-3526" y="-6360" as="sourcePoint" />
            <mxPoint x="-3526" y="-6420" as="targetPoint" />
          </mxGeometry>
        </mxCell>
        <mxCell id="K3HkH2EL4yBhqLBcemKd-137" value="&lt;span style=&quot;font-size: 50px;&quot;&gt;break&lt;/span&gt;" style="text;html=1;align=center;verticalAlign=middle;whiteSpace=wrap;rounded=0;" parent="1" vertex="1">
          <mxGeometry x="-1675" y="-6330" width="170" height="70" as="geometry" />
        </mxCell>
        <mxCell id="K3HkH2EL4yBhqLBcemKd-138" value="&lt;font style=&quot;font-size: 35px;&quot;&gt;new&lt;/font&gt;" style="rounded=0;whiteSpace=wrap;html=1;fillColor=#0050ef;strokeColor=#001DBC;fontColor=#ffffff;" parent="1" vertex="1">
          <mxGeometry x="-3740" y="-6480" width="85" height="60" as="geometry" />
        </mxCell>
        <mxCell id="K3HkH2EL4yBhqLBcemKd-139" value="" style="endArrow=classic;html=1;rounded=0;" parent="1" edge="1">
          <mxGeometry width="50" height="50" relative="1" as="geometry">
            <mxPoint x="-1596" y="-6350" as="sourcePoint" />
            <mxPoint x="-1596" y="-6410" as="targetPoint" />
          </mxGeometry>
        </mxCell>
        <mxCell id="K3HkH2EL4yBhqLBcemKd-140" value="" style="rounded=0;whiteSpace=wrap;html=1;fillColor=#fff2cc;strokeColor=#d6b656;" parent="1" vertex="1">
          <mxGeometry x="-1625" y="-6480" width="60" height="60" as="geometry" />
        </mxCell>
        <mxCell id="K3HkH2EL4yBhqLBcemKd-141" value="" style="rounded=0;whiteSpace=wrap;html=1;fillColor=#008a00;fontColor=#ffffff;strokeColor=#005700;" parent="1" vertex="1">
          <mxGeometry x="-3015" y="-6480" width="200" height="60" as="geometry" />
        </mxCell>
        <mxCell id="K3HkH2EL4yBhqLBcemKd-142" value="&lt;font style=&quot;font-size: 35px;&quot;&gt;md&lt;/font&gt;" style="rounded=0;whiteSpace=wrap;html=1;fillColor=#fff2cc;strokeColor=#d6b656;" parent="1" vertex="1">
          <mxGeometry x="-3085" y="-6480" width="70" height="60" as="geometry" />
        </mxCell>
        <mxCell id="K3HkH2EL4yBhqLBcemKd-143" value="&lt;span style=&quot;font-size: 35px;&quot;&gt;y&lt;/span&gt;" style="rounded=0;whiteSpace=wrap;html=1;fillColor=#0050ef;strokeColor=#001DBC;fontColor=#ffffff;" parent="1" vertex="1">
          <mxGeometry x="-2755" y="-6480" width="60" height="60" as="geometry" />
        </mxCell>
        <mxCell id="K3HkH2EL4yBhqLBcemKd-144" value="&lt;font style=&quot;font-size: 35px;&quot;&gt;X&lt;/font&gt;" style="text;html=1;align=center;verticalAlign=middle;whiteSpace=wrap;rounded=0;" parent="1" vertex="1">
          <mxGeometry x="-2865" y="-6320" width="170" height="70" as="geometry" />
        </mxCell>
        <mxCell id="K3HkH2EL4yBhqLBcemKd-145" value="" style="rounded=0;whiteSpace=wrap;html=1;" parent="1" vertex="1">
          <mxGeometry x="-2635" y="-6480" width="210" height="60" as="geometry" />
        </mxCell>
        <mxCell id="K3HkH2EL4yBhqLBcemKd-146" value="&lt;span style=&quot;font-size: 35px;&quot;&gt;z&lt;/span&gt;" style="rounded=0;whiteSpace=wrap;html=1;fillColor=#fff2cc;strokeColor=#d6b656;" parent="1" vertex="1">
          <mxGeometry x="-2695" y="-6480" width="60" height="60" as="geometry" />
        </mxCell>
        <mxCell id="K3HkH2EL4yBhqLBcemKd-147" value="&lt;span style=&quot;font-size: 35px;&quot;&gt;md&lt;/span&gt;" style="rounded=0;whiteSpace=wrap;html=1;fillColor=#fff2cc;strokeColor=#d6b656;" parent="1" vertex="1">
          <mxGeometry x="-2815" y="-6480" width="60" height="60" as="geometry" />
        </mxCell>
        <mxCell id="K3HkH2EL4yBhqLBcemKd-148" value="" style="endArrow=classic;html=1;rounded=0;" parent="1" edge="1">
          <mxGeometry width="50" height="50" relative="1" as="geometry">
            <mxPoint x="-2775" y="-6360" as="sourcePoint" />
            <mxPoint x="-2775" y="-6420" as="targetPoint" />
          </mxGeometry>
        </mxCell>
        <mxCell id="K3HkH2EL4yBhqLBcemKd-149" value="" style="rounded=0;whiteSpace=wrap;html=1;fillColor=#008a00;fontColor=#ffffff;strokeColor=#005700;" parent="1" vertex="1">
          <mxGeometry x="-2365" y="-6480" width="200" height="60" as="geometry" />
        </mxCell>
        <mxCell id="K3HkH2EL4yBhqLBcemKd-150" value="&lt;font style=&quot;font-size: 35px;&quot;&gt;md&lt;/font&gt;" style="rounded=0;whiteSpace=wrap;html=1;fillColor=#fff2cc;strokeColor=#d6b656;" parent="1" vertex="1">
          <mxGeometry x="-2435" y="-6480" width="70" height="60" as="geometry" />
        </mxCell>
        <mxCell id="K3HkH2EL4yBhqLBcemKd-151" value="&lt;span style=&quot;font-size: 35px;&quot;&gt;x&lt;/span&gt;" style="rounded=0;whiteSpace=wrap;html=1;fillColor=#fff2cc;strokeColor=#d6b656;" parent="1" vertex="1">
          <mxGeometry x="-2105" y="-6480" width="60" height="60" as="geometry" />
        </mxCell>
        <mxCell id="K3HkH2EL4yBhqLBcemKd-152" value="&lt;font style=&quot;font-size: 50px;&quot;&gt;Tail&lt;br&gt;Z&lt;/font&gt;" style="text;html=1;align=center;verticalAlign=middle;whiteSpace=wrap;rounded=0;" parent="1" vertex="1">
          <mxGeometry x="-2215" y="-6320" width="170" height="70" as="geometry" />
        </mxCell>
        <mxCell id="K3HkH2EL4yBhqLBcemKd-153" value="" style="rounded=0;whiteSpace=wrap;html=1;" parent="1" vertex="1">
          <mxGeometry x="-1985" y="-6480" width="360" height="60" as="geometry" />
        </mxCell>
        <mxCell id="K3HkH2EL4yBhqLBcemKd-154" value="&lt;span style=&quot;font-size: 35px;&quot;&gt;!&lt;/span&gt;" style="rounded=0;whiteSpace=wrap;html=1;fillColor=#fff2cc;strokeColor=#d6b656;" parent="1" vertex="1">
          <mxGeometry x="-2045" y="-6480" width="60" height="60" as="geometry" />
        </mxCell>
        <mxCell id="K3HkH2EL4yBhqLBcemKd-155" value="&lt;span style=&quot;font-size: 35px;&quot;&gt;md&lt;/span&gt;" style="rounded=0;whiteSpace=wrap;html=1;fillColor=#fff2cc;strokeColor=#d6b656;" parent="1" vertex="1">
          <mxGeometry x="-2165" y="-6480" width="60" height="60" as="geometry" />
        </mxCell>
        <mxCell id="K3HkH2EL4yBhqLBcemKd-156" value="" style="endArrow=classic;html=1;rounded=0;" parent="1" edge="1">
          <mxGeometry width="50" height="50" relative="1" as="geometry">
            <mxPoint x="-2125" y="-6360" as="sourcePoint" />
            <mxPoint x="-2125" y="-6420" as="targetPoint" />
          </mxGeometry>
        </mxCell>
        <mxCell id="K3HkH2EL4yBhqLBcemKd-157" value="" style="rounded=0;whiteSpace=wrap;html=1;fillColor=#008a00;fontColor=#ffffff;strokeColor=#005700;" parent="1" vertex="1">
          <mxGeometry x="-3940" y="-6480" width="200" height="60" as="geometry" />
        </mxCell>
        <mxCell id="K3HkH2EL4yBhqLBcemKd-158" value="&lt;font style=&quot;font-size: 35px;&quot;&gt;md&lt;/font&gt;" style="rounded=0;whiteSpace=wrap;html=1;fillColor=#fff2cc;strokeColor=#d6b656;" parent="1" vertex="1">
          <mxGeometry x="-4010" y="-6480" width="70" height="60" as="geometry" />
        </mxCell>
        <mxCell id="K3HkH2EL4yBhqLBcemKd-159" value="" style="rounded=0;whiteSpace=wrap;html=1;" parent="1" vertex="1">
          <mxGeometry x="-3945" y="-5450" width="2630" height="60" as="geometry" />
        </mxCell>
        <mxCell id="K3HkH2EL4yBhqLBcemKd-160" value="" style="rounded=0;whiteSpace=wrap;html=1;fillColor=#008a00;fontColor=#ffffff;strokeColor=#005700;" parent="1" vertex="1">
          <mxGeometry x="-3875" y="-5450" width="200" height="60" as="geometry" />
        </mxCell>
        <mxCell id="K3HkH2EL4yBhqLBcemKd-161" value="&lt;span style=&quot;font-size: 35px;&quot;&gt;!&lt;/span&gt;" style="rounded=0;whiteSpace=wrap;html=1;fillColor=#fff2cc;strokeColor=#d6b656;" parent="1" vertex="1">
          <mxGeometry x="-3615" y="-5450" width="60" height="60" as="geometry" />
        </mxCell>
        <mxCell id="K3HkH2EL4yBhqLBcemKd-162" value="&lt;font style=&quot;font-size: 50px;&quot;&gt;Head&lt;br&gt;y&lt;/font&gt;" style="text;html=1;align=center;verticalAlign=middle;whiteSpace=wrap;rounded=0;" parent="1" vertex="1">
          <mxGeometry x="-3725" y="-5290" width="170" height="70" as="geometry" />
        </mxCell>
        <mxCell id="K3HkH2EL4yBhqLBcemKd-163" value="" style="rounded=0;whiteSpace=wrap;html=1;" parent="1" vertex="1">
          <mxGeometry x="-3495" y="-5450" width="610" height="60" as="geometry" />
        </mxCell>
        <mxCell id="K3HkH2EL4yBhqLBcemKd-164" value="&lt;span style=&quot;font-size: 35px;&quot;&gt;X&lt;/span&gt;" style="rounded=0;whiteSpace=wrap;html=1;fillColor=#fff2cc;strokeColor=#d6b656;" parent="1" vertex="1">
          <mxGeometry x="-3555" y="-5450" width="60" height="60" as="geometry" />
        </mxCell>
        <mxCell id="K3HkH2EL4yBhqLBcemKd-165" value="&lt;span style=&quot;font-size: 35px;&quot;&gt;md&lt;/span&gt;" style="rounded=0;whiteSpace=wrap;html=1;fillColor=#fff2cc;strokeColor=#d6b656;" parent="1" vertex="1">
          <mxGeometry x="-3675" y="-5450" width="60" height="60" as="geometry" />
        </mxCell>
        <mxCell id="K3HkH2EL4yBhqLBcemKd-166" value="" style="endArrow=classic;html=1;rounded=0;" parent="1" edge="1">
          <mxGeometry width="50" height="50" relative="1" as="geometry">
            <mxPoint x="-3635" y="-5330" as="sourcePoint" />
            <mxPoint x="-3635" y="-5390" as="targetPoint" />
          </mxGeometry>
        </mxCell>
        <mxCell id="K3HkH2EL4yBhqLBcemKd-167" value="&lt;span style=&quot;font-size: 50px;&quot;&gt;break&lt;/span&gt;" style="text;html=1;align=center;verticalAlign=middle;whiteSpace=wrap;rounded=0;" parent="1" vertex="1">
          <mxGeometry x="-1475" y="-5300" width="170" height="70" as="geometry" />
        </mxCell>
        <mxCell id="K3HkH2EL4yBhqLBcemKd-168" value="&lt;font style=&quot;font-size: 35px;&quot;&gt;md&lt;/font&gt;" style="rounded=0;whiteSpace=wrap;html=1;fillColor=#fff2cc;strokeColor=#d6b656;" parent="1" vertex="1">
          <mxGeometry x="-3945" y="-5450" width="70" height="60" as="geometry" />
        </mxCell>
        <mxCell id="K3HkH2EL4yBhqLBcemKd-169" value="" style="endArrow=classic;html=1;rounded=0;" parent="1" edge="1">
          <mxGeometry width="50" height="50" relative="1" as="geometry">
            <mxPoint x="-1396" y="-5320" as="sourcePoint" />
            <mxPoint x="-1396" y="-5380" as="targetPoint" />
          </mxGeometry>
        </mxCell>
        <mxCell id="K3HkH2EL4yBhqLBcemKd-170" value="" style="rounded=0;whiteSpace=wrap;html=1;fillColor=#fff2cc;strokeColor=#d6b656;" parent="1" vertex="1">
          <mxGeometry x="-1425" y="-5450" width="60" height="60" as="geometry" />
        </mxCell>
        <mxCell id="K3HkH2EL4yBhqLBcemKd-171" value="" style="rounded=0;whiteSpace=wrap;html=1;fillColor=#008a00;fontColor=#ffffff;strokeColor=#005700;" parent="1" vertex="1">
          <mxGeometry x="-2815" y="-5450" width="200" height="60" as="geometry" />
        </mxCell>
        <mxCell id="K3HkH2EL4yBhqLBcemKd-172" value="&lt;font style=&quot;font-size: 35px;&quot;&gt;md&lt;/font&gt;" style="rounded=0;whiteSpace=wrap;html=1;fillColor=#fff2cc;strokeColor=#d6b656;" parent="1" vertex="1">
          <mxGeometry x="-2885" y="-5450" width="70" height="60" as="geometry" />
        </mxCell>
        <mxCell id="K3HkH2EL4yBhqLBcemKd-173" value="&lt;span style=&quot;font-size: 35px;&quot;&gt;y&lt;/span&gt;" style="rounded=0;whiteSpace=wrap;html=1;fillColor=#fff2cc;strokeColor=#d6b656;" parent="1" vertex="1">
          <mxGeometry x="-2555" y="-5450" width="60" height="60" as="geometry" />
        </mxCell>
        <mxCell id="K3HkH2EL4yBhqLBcemKd-174" value="&lt;font style=&quot;font-size: 35px;&quot;&gt;X&lt;/font&gt;" style="text;html=1;align=center;verticalAlign=middle;whiteSpace=wrap;rounded=0;" parent="1" vertex="1">
          <mxGeometry x="-2665" y="-5290" width="170" height="70" as="geometry" />
        </mxCell>
        <mxCell id="K3HkH2EL4yBhqLBcemKd-175" value="" style="rounded=0;whiteSpace=wrap;html=1;" parent="1" vertex="1">
          <mxGeometry x="-2435" y="-5450" width="210" height="60" as="geometry" />
        </mxCell>
        <mxCell id="K3HkH2EL4yBhqLBcemKd-176" value="&lt;span style=&quot;font-size: 35px;&quot;&gt;z&lt;/span&gt;" style="rounded=0;whiteSpace=wrap;html=1;fillColor=#0050ef;strokeColor=#001DBC;fontColor=#ffffff;" parent="1" vertex="1">
          <mxGeometry x="-2495" y="-5450" width="60" height="60" as="geometry" />
        </mxCell>
        <mxCell id="K3HkH2EL4yBhqLBcemKd-177" value="&lt;span style=&quot;font-size: 35px;&quot;&gt;md&lt;/span&gt;" style="rounded=0;whiteSpace=wrap;html=1;fillColor=#fff2cc;strokeColor=#d6b656;" parent="1" vertex="1">
          <mxGeometry x="-2615" y="-5450" width="60" height="60" as="geometry" />
        </mxCell>
        <mxCell id="K3HkH2EL4yBhqLBcemKd-178" value="" style="endArrow=classic;html=1;rounded=0;" parent="1" edge="1">
          <mxGeometry width="50" height="50" relative="1" as="geometry">
            <mxPoint x="-2575" y="-5330" as="sourcePoint" />
            <mxPoint x="-2575" y="-5390" as="targetPoint" />
          </mxGeometry>
        </mxCell>
        <mxCell id="K3HkH2EL4yBhqLBcemKd-179" value="" style="rounded=0;whiteSpace=wrap;html=1;fillColor=#008a00;fontColor=#ffffff;strokeColor=#005700;" parent="1" vertex="1">
          <mxGeometry x="-2165" y="-5450" width="200" height="60" as="geometry" />
        </mxCell>
        <mxCell id="K3HkH2EL4yBhqLBcemKd-180" value="&lt;font style=&quot;font-size: 35px;&quot;&gt;md&lt;/font&gt;" style="rounded=0;whiteSpace=wrap;html=1;fillColor=#fff2cc;strokeColor=#d6b656;" parent="1" vertex="1">
          <mxGeometry x="-2235" y="-5450" width="70" height="60" as="geometry" />
        </mxCell>
        <mxCell id="K3HkH2EL4yBhqLBcemKd-181" value="&lt;span style=&quot;font-size: 35px;&quot;&gt;x&lt;/span&gt;" style="rounded=0;whiteSpace=wrap;html=1;fillColor=#0050ef;strokeColor=#001DBC;fontColor=#ffffff;" parent="1" vertex="1">
          <mxGeometry x="-1630" y="-5450" width="60" height="60" as="geometry" />
        </mxCell>
        <mxCell id="K3HkH2EL4yBhqLBcemKd-182" value="&lt;font style=&quot;font-size: 50px;&quot;&gt;Tail&lt;br&gt;Z&lt;/font&gt;" style="text;html=1;align=center;verticalAlign=middle;whiteSpace=wrap;rounded=0;fillColor=#0050ef;fontColor=#ffffff;strokeColor=#001DBC;" parent="1" vertex="1">
          <mxGeometry x="-1745" y="-5300" width="195" height="120" as="geometry" />
        </mxCell>
        <mxCell id="K3HkH2EL4yBhqLBcemKd-183" value="" style="rounded=0;whiteSpace=wrap;html=1;" parent="1" vertex="1">
          <mxGeometry x="-1510" y="-5450" width="90" height="60" as="geometry" />
        </mxCell>
        <mxCell id="K3HkH2EL4yBhqLBcemKd-184" value="&lt;span style=&quot;font-size: 35px;&quot;&gt;!&lt;/span&gt;" style="rounded=0;whiteSpace=wrap;html=1;fillColor=#0050ef;strokeColor=#001DBC;fontColor=#ffffff;" parent="1" vertex="1">
          <mxGeometry x="-1570" y="-5450" width="60" height="60" as="geometry" />
        </mxCell>
        <mxCell id="K3HkH2EL4yBhqLBcemKd-185" value="&lt;span style=&quot;font-size: 35px;&quot;&gt;New&lt;/span&gt;" style="rounded=0;whiteSpace=wrap;html=1;fillColor=#0050ef;strokeColor=#001DBC;fontColor=#ffffff;" parent="1" vertex="1">
          <mxGeometry x="-1690" y="-5450" width="60" height="60" as="geometry" />
        </mxCell>
        <mxCell id="K3HkH2EL4yBhqLBcemKd-186" value="" style="endArrow=classic;html=1;rounded=0;" parent="1" edge="1">
          <mxGeometry width="50" height="50" relative="1" as="geometry">
            <mxPoint x="-1650" y="-5330" as="sourcePoint" />
            <mxPoint x="-1650" y="-5390" as="targetPoint" />
          </mxGeometry>
        </mxCell>
        <mxCell id="K3HkH2EL4yBhqLBcemKd-187" value="" style="rounded=0;whiteSpace=wrap;html=1;fillColor=#008a00;fontColor=#ffffff;strokeColor=#005700;" parent="1" vertex="1">
          <mxGeometry x="-1895" y="-5450" width="200" height="60" as="geometry" />
        </mxCell>
        <mxCell id="K3HkH2EL4yBhqLBcemKd-188" value="&lt;font style=&quot;font-size: 35px;&quot;&gt;md&lt;/font&gt;" style="rounded=0;whiteSpace=wrap;html=1;fillColor=#0050ef;strokeColor=#001DBC;fontColor=#ffffff;" parent="1" vertex="1">
          <mxGeometry x="-1965" y="-5450" width="70" height="60" as="geometry" />
        </mxCell>
        <mxCell id="K3HkH2EL4yBhqLBcemKd-189" value="&lt;span style=&quot;font-size: 50px;&quot;&gt;ptr-1&lt;/span&gt;" style="text;html=1;align=center;verticalAlign=middle;whiteSpace=wrap;rounded=0;" parent="1" vertex="1">
          <mxGeometry x="-3790" y="-6330" width="170" height="70" as="geometry" />
        </mxCell>
        <mxCell id="K3HkH2EL4yBhqLBcemKd-190" value="" style="endArrow=classic;html=1;rounded=0;" parent="1" edge="1">
          <mxGeometry width="50" height="50" relative="1" as="geometry">
            <mxPoint x="-3711" y="-6350" as="sourcePoint" />
            <mxPoint x="-3711" y="-6410" as="targetPoint" />
          </mxGeometry>
        </mxCell>
        <mxCell id="K3HkH2EL4yBhqLBcemKd-193" value="&lt;span style=&quot;font-size: 50px;&quot;&gt;ptr-1&lt;/span&gt;" style="text;html=1;align=center;verticalAlign=middle;whiteSpace=wrap;rounded=0;" parent="1" vertex="1">
          <mxGeometry x="-2010" y="-5310" width="170" height="70" as="geometry" />
        </mxCell>
        <mxCell id="K3HkH2EL4yBhqLBcemKd-194" value="" style="endArrow=classic;html=1;rounded=0;" parent="1" edge="1">
          <mxGeometry width="50" height="50" relative="1" as="geometry">
            <mxPoint x="-1931" y="-5330" as="sourcePoint" />
            <mxPoint x="-1931" y="-5390" as="targetPoint" />
          </mxGeometry>
        </mxCell>
        <mxCell id="K3HkH2EL4yBhqLBcemKd-227" value="" style="rounded=0;whiteSpace=wrap;html=1;" parent="1" vertex="1">
          <mxGeometry x="-3945" y="-4850" width="2630" height="60" as="geometry" />
        </mxCell>
        <mxCell id="K3HkH2EL4yBhqLBcemKd-228" value="" style="rounded=0;whiteSpace=wrap;html=1;fillColor=#008a00;fontColor=#ffffff;strokeColor=#005700;" parent="1" vertex="1">
          <mxGeometry x="-3875" y="-4850" width="200" height="60" as="geometry" />
        </mxCell>
        <mxCell id="K3HkH2EL4yBhqLBcemKd-229" value="&lt;span style=&quot;font-size: 35px;&quot;&gt;!&lt;/span&gt;" style="rounded=0;whiteSpace=wrap;html=1;fillColor=#fff2cc;strokeColor=#d6b656;" parent="1" vertex="1">
          <mxGeometry x="-3615" y="-4850" width="60" height="60" as="geometry" />
        </mxCell>
        <mxCell id="K3HkH2EL4yBhqLBcemKd-230" value="&lt;font style=&quot;font-size: 50px;&quot;&gt;Head&lt;br&gt;y&lt;/font&gt;" style="text;html=1;align=center;verticalAlign=middle;whiteSpace=wrap;rounded=0;" parent="1" vertex="1">
          <mxGeometry x="-3725" y="-4690" width="170" height="70" as="geometry" />
        </mxCell>
        <mxCell id="K3HkH2EL4yBhqLBcemKd-231" value="" style="rounded=0;whiteSpace=wrap;html=1;" parent="1" vertex="1">
          <mxGeometry x="-3495" y="-4850" width="415" height="60" as="geometry" />
        </mxCell>
        <mxCell id="K3HkH2EL4yBhqLBcemKd-232" value="&lt;span style=&quot;font-size: 35px;&quot;&gt;X&lt;/span&gt;" style="rounded=0;whiteSpace=wrap;html=1;fillColor=#0050ef;strokeColor=#001DBC;fontColor=#ffffff;" parent="1" vertex="1">
          <mxGeometry x="-3555" y="-4850" width="60" height="60" as="geometry" />
        </mxCell>
        <mxCell id="K3HkH2EL4yBhqLBcemKd-233" value="&lt;span style=&quot;font-size: 35px;&quot;&gt;md&lt;/span&gt;" style="rounded=0;whiteSpace=wrap;html=1;fillColor=#fff2cc;strokeColor=#d6b656;" parent="1" vertex="1">
          <mxGeometry x="-3675" y="-4850" width="60" height="60" as="geometry" />
        </mxCell>
        <mxCell id="K3HkH2EL4yBhqLBcemKd-234" value="" style="endArrow=classic;html=1;rounded=0;" parent="1" edge="1">
          <mxGeometry width="50" height="50" relative="1" as="geometry">
            <mxPoint x="-3635" y="-4730" as="sourcePoint" />
            <mxPoint x="-3635" y="-4790" as="targetPoint" />
          </mxGeometry>
        </mxCell>
        <mxCell id="K3HkH2EL4yBhqLBcemKd-235" value="&lt;span style=&quot;font-size: 50px;&quot;&gt;break&lt;/span&gt;" style="text;html=1;align=center;verticalAlign=middle;whiteSpace=wrap;rounded=0;" parent="1" vertex="1">
          <mxGeometry x="-1475" y="-4700" width="170" height="70" as="geometry" />
        </mxCell>
        <mxCell id="K3HkH2EL4yBhqLBcemKd-236" value="&lt;font style=&quot;font-size: 35px;&quot;&gt;md&lt;/font&gt;" style="rounded=0;whiteSpace=wrap;html=1;fillColor=#fff2cc;strokeColor=#d6b656;" parent="1" vertex="1">
          <mxGeometry x="-3945" y="-4850" width="70" height="60" as="geometry" />
        </mxCell>
        <mxCell id="K3HkH2EL4yBhqLBcemKd-237" value="" style="endArrow=classic;html=1;rounded=0;" parent="1" edge="1">
          <mxGeometry width="50" height="50" relative="1" as="geometry">
            <mxPoint x="-1396" y="-4720" as="sourcePoint" />
            <mxPoint x="-1396" y="-4780" as="targetPoint" />
          </mxGeometry>
        </mxCell>
        <mxCell id="K3HkH2EL4yBhqLBcemKd-238" value="" style="rounded=0;whiteSpace=wrap;html=1;fillColor=#fff2cc;strokeColor=#d6b656;" parent="1" vertex="1">
          <mxGeometry x="-1425" y="-4850" width="60" height="60" as="geometry" />
        </mxCell>
        <mxCell id="K3HkH2EL4yBhqLBcemKd-239" value="" style="rounded=0;whiteSpace=wrap;html=1;fillColor=#008a00;fontColor=#ffffff;strokeColor=#005700;" parent="1" vertex="1">
          <mxGeometry x="-3010" y="-4850" width="200" height="60" as="geometry" />
        </mxCell>
        <mxCell id="K3HkH2EL4yBhqLBcemKd-240" value="&lt;font style=&quot;font-size: 35px;&quot;&gt;md&lt;/font&gt;" style="rounded=0;whiteSpace=wrap;html=1;fillColor=#fff2cc;strokeColor=#d6b656;" parent="1" vertex="1">
          <mxGeometry x="-3080" y="-4850" width="70" height="60" as="geometry" />
        </mxCell>
        <mxCell id="K3HkH2EL4yBhqLBcemKd-242" value="&lt;font style=&quot;font-size: 35px;&quot;&gt;X&lt;/font&gt;" style="text;html=1;align=center;verticalAlign=middle;whiteSpace=wrap;rounded=0;fillColor=#0050ef;fontColor=#ffffff;strokeColor=#001DBC;" parent="1" vertex="1">
          <mxGeometry x="-2665" y="-4690" width="170" height="70" as="geometry" />
        </mxCell>
        <mxCell id="K3HkH2EL4yBhqLBcemKd-243" value="" style="rounded=0;whiteSpace=wrap;html=1;" parent="1" vertex="1">
          <mxGeometry x="-2435" y="-4850" width="210" height="60" as="geometry" />
        </mxCell>
        <mxCell id="K3HkH2EL4yBhqLBcemKd-247" value="" style="rounded=0;whiteSpace=wrap;html=1;fillColor=#008a00;fontColor=#ffffff;strokeColor=#005700;" parent="1" vertex="1">
          <mxGeometry x="-2165" y="-4850" width="200" height="60" as="geometry" />
        </mxCell>
        <mxCell id="K3HkH2EL4yBhqLBcemKd-248" value="&lt;font style=&quot;font-size: 35px;&quot;&gt;md&lt;/font&gt;" style="rounded=0;whiteSpace=wrap;html=1;fillColor=#fff2cc;strokeColor=#d6b656;" parent="1" vertex="1">
          <mxGeometry x="-2235" y="-4850" width="70" height="60" as="geometry" />
        </mxCell>
        <mxCell id="K3HkH2EL4yBhqLBcemKd-249" value="&lt;span style=&quot;font-size: 35px;&quot;&gt;x&lt;/span&gt;" style="rounded=0;whiteSpace=wrap;html=1;fillColor=#0050ef;strokeColor=#001DBC;fontColor=#ffffff;" parent="1" vertex="1">
          <mxGeometry x="-1905" y="-4850" width="60" height="60" as="geometry" />
        </mxCell>
        <mxCell id="K3HkH2EL4yBhqLBcemKd-250" value="&lt;font style=&quot;font-size: 50px;&quot;&gt;Tail&lt;br&gt;Z&lt;/font&gt;" style="text;html=1;align=center;verticalAlign=middle;whiteSpace=wrap;rounded=0;" parent="1" vertex="1">
          <mxGeometry x="-2015" y="-4690" width="170" height="70" as="geometry" />
        </mxCell>
        <mxCell id="K3HkH2EL4yBhqLBcemKd-251" value="" style="rounded=0;whiteSpace=wrap;html=1;" parent="1" vertex="1">
          <mxGeometry x="-1785" y="-4850" width="360" height="60" as="geometry" />
        </mxCell>
        <mxCell id="K3HkH2EL4yBhqLBcemKd-252" value="&lt;span style=&quot;font-size: 35px;&quot;&gt;!&lt;/span&gt;" style="rounded=0;whiteSpace=wrap;html=1;fillColor=#fff2cc;strokeColor=#d6b656;" parent="1" vertex="1">
          <mxGeometry x="-1845" y="-4850" width="60" height="60" as="geometry" />
        </mxCell>
        <mxCell id="K3HkH2EL4yBhqLBcemKd-253" value="&lt;span style=&quot;font-size: 35px;&quot;&gt;md&lt;/span&gt;" style="rounded=0;whiteSpace=wrap;html=1;fillColor=#fff2cc;strokeColor=#d6b656;" parent="1" vertex="1">
          <mxGeometry x="-1965" y="-4850" width="60" height="60" as="geometry" />
        </mxCell>
        <mxCell id="K3HkH2EL4yBhqLBcemKd-254" value="" style="endArrow=classic;html=1;rounded=0;" parent="1" edge="1">
          <mxGeometry width="50" height="50" relative="1" as="geometry">
            <mxPoint x="-1925" y="-4730" as="sourcePoint" />
            <mxPoint x="-1925" y="-4790" as="targetPoint" />
          </mxGeometry>
        </mxCell>
        <mxCell id="K3HkH2EL4yBhqLBcemKd-256" value="" style="rounded=0;whiteSpace=wrap;html=1;fillColor=#008a00;fontColor=#ffffff;strokeColor=#005700;" parent="1" vertex="1">
          <mxGeometry x="-2730" y="-4850" width="90" height="60" as="geometry" />
        </mxCell>
        <mxCell id="K3HkH2EL4yBhqLBcemKd-257" value="&lt;span style=&quot;font-size: 35px;&quot;&gt;y&lt;/span&gt;" style="rounded=0;whiteSpace=wrap;html=1;fillColor=#0050ef;strokeColor=#001DBC;fontColor=#ffffff;" parent="1" vertex="1">
          <mxGeometry x="-2560" y="-4850" width="60" height="60" as="geometry" />
        </mxCell>
        <mxCell id="K3HkH2EL4yBhqLBcemKd-258" value="&lt;span style=&quot;font-size: 35px;&quot;&gt;z&lt;/span&gt;" style="rounded=0;whiteSpace=wrap;html=1;fillColor=#0050ef;strokeColor=#001DBC;fontColor=#ffffff;" parent="1" vertex="1">
          <mxGeometry x="-2500" y="-4850" width="60" height="60" as="geometry" />
        </mxCell>
        <mxCell id="K3HkH2EL4yBhqLBcemKd-259" value="&lt;span style=&quot;font-size: 35px;&quot;&gt;New&lt;/span&gt;" style="rounded=0;whiteSpace=wrap;html=1;fillColor=#0050ef;strokeColor=#001DBC;fontColor=#ffffff;" parent="1" vertex="1">
          <mxGeometry x="-2640" y="-4850" width="80" height="60" as="geometry" />
        </mxCell>
        <mxCell id="K3HkH2EL4yBhqLBcemKd-260" value="" style="endArrow=classic;html=1;rounded=0;" parent="1" edge="1">
          <mxGeometry width="50" height="50" relative="1" as="geometry">
            <mxPoint x="-2601" y="-4730" as="sourcePoint" />
            <mxPoint x="-2601" y="-4790" as="targetPoint" />
          </mxGeometry>
        </mxCell>
        <mxCell id="K3HkH2EL4yBhqLBcemKd-261" value="&lt;font style=&quot;font-size: 35px;&quot;&gt;new&lt;/font&gt;" style="rounded=0;whiteSpace=wrap;html=1;fillColor=#0050ef;strokeColor=#001DBC;fontColor=#ffffff;" parent="1" vertex="1">
          <mxGeometry x="-2815" y="-4850" width="85" height="60" as="geometry" />
        </mxCell>
        <mxCell id="K3HkH2EL4yBhqLBcemKd-262" value="" style="endArrow=classic;html=1;rounded=0;" parent="1" edge="1">
          <mxGeometry width="50" height="50" relative="1" as="geometry">
            <mxPoint x="-2786" y="-4720" as="sourcePoint" />
            <mxPoint x="-2786" y="-4780" as="targetPoint" />
          </mxGeometry>
        </mxCell>
        <mxCell id="K3HkH2EL4yBhqLBcemKd-263" value="&lt;span style=&quot;font-size: 50px;&quot;&gt;ptr-1&lt;/span&gt;" style="text;html=1;align=center;verticalAlign=middle;whiteSpace=wrap;rounded=0;" parent="1" vertex="1">
          <mxGeometry x="-2860" y="-4700" width="170" height="70" as="geometry" />
        </mxCell>
        <mxCell id="K3HkH2EL4yBhqLBcemKd-279" value="&lt;span style=&quot;font-size: 50px;&quot;&gt;return :&lt;br&gt;1-&amp;nbsp;return value point to the beginning of data space&lt;br&gt;2-&amp;nbsp;edit metadata of new allocation to new allocation available space&lt;/span&gt;" style="rounded=0;whiteSpace=wrap;html=1;" parent="1" vertex="1">
          <mxGeometry x="2130" y="-4970" width="1540" height="240" as="geometry" />
        </mxCell>
        <mxCell id="i8Awva0lIzvKU5chbaIe-13" style="edgeStyle=orthogonalEdgeStyle;rounded=0;orthogonalLoop=1;jettySize=auto;html=1;entryX=0.5;entryY=1;entryDx=0;entryDy=0;strokeWidth=3;" edge="1" parent="1" source="K3HkH2EL4yBhqLBcemKd-297" target="K3HkH2EL4yBhqLBcemKd-302">
          <mxGeometry relative="1" as="geometry" />
        </mxCell>
        <mxCell id="i8Awva0lIzvKU5chbaIe-18" style="edgeStyle=orthogonalEdgeStyle;rounded=0;orthogonalLoop=1;jettySize=auto;html=1;entryX=0.5;entryY=0;entryDx=0;entryDy=0;strokeWidth=3;" edge="1" parent="1" source="K3HkH2EL4yBhqLBcemKd-297" target="K3HkH2EL4yBhqLBcemKd-66">
          <mxGeometry relative="1" as="geometry" />
        </mxCell>
        <mxCell id="K3HkH2EL4yBhqLBcemKd-297" value="&lt;font style=&quot;font-size: 45px;&quot;&gt;i == -1&lt;/font&gt;" style="rhombus;whiteSpace=wrap;html=1;" parent="1" vertex="1">
          <mxGeometry x="2905" y="-6000" width="280" height="200" as="geometry" />
        </mxCell>
        <mxCell id="i8Awva0lIzvKU5chbaIe-19" style="edgeStyle=orthogonalEdgeStyle;rounded=0;orthogonalLoop=1;jettySize=auto;html=1;strokeWidth=3;" edge="1" parent="1" source="K3HkH2EL4yBhqLBcemKd-302" target="K3HkH2EL4yBhqLBcemKd-66">
          <mxGeometry relative="1" as="geometry">
            <Array as="points">
              <mxPoint x="2700" y="-6140" />
              <mxPoint x="2700" y="-5900" />
              <mxPoint x="2345" y="-5900" />
            </Array>
          </mxGeometry>
        </mxCell>
        <mxCell id="K3HkH2EL4yBhqLBcemKd-302" value="&lt;font style=&quot;font-size: 50px;&quot;&gt;Extend break&lt;/font&gt;" style="rounded=0;whiteSpace=wrap;html=1;" parent="1" vertex="1">
          <mxGeometry x="2810" y="-6210" width="470" height="140" as="geometry" />
        </mxCell>
        <mxCell id="i8Awva0lIzvKU5chbaIe-20" style="edgeStyle=orthogonalEdgeStyle;rounded=0;orthogonalLoop=1;jettySize=auto;html=1;entryX=0.5;entryY=0;entryDx=0;entryDy=0;strokeWidth=3;" edge="1" parent="1" source="K3HkH2EL4yBhqLBcemKd-357" target="K3HkH2EL4yBhqLBcemKd-61">
          <mxGeometry relative="1" as="geometry" />
        </mxCell>
        <mxCell id="K3HkH2EL4yBhqLBcemKd-357" value="&lt;font style=&quot;font-size: 45px;&quot;&gt;start&lt;/font&gt;" style="ellipse;whiteSpace=wrap;html=1;" parent="1" vertex="1">
          <mxGeometry x="2220" y="-6390" width="250" height="180" as="geometry" />
        </mxCell>
        <mxCell id="i8Awva0lIzvKU5chbaIe-9" style="edgeStyle=orthogonalEdgeStyle;rounded=0;orthogonalLoop=1;jettySize=auto;html=1;strokeWidth=3;" edge="1" parent="1" source="K3HkH2EL4yBhqLBcemKd-66" target="K3HkH2EL4yBhqLBcemKd-93">
          <mxGeometry relative="1" as="geometry" />
        </mxCell>
        <mxCell id="i8Awva0lIzvKU5chbaIe-10" style="edgeStyle=orthogonalEdgeStyle;rounded=0;orthogonalLoop=1;jettySize=auto;html=1;entryX=0;entryY=0.5;entryDx=0;entryDy=0;strokeWidth=3;" edge="1" parent="1" source="K3HkH2EL4yBhqLBcemKd-66" target="K3HkH2EL4yBhqLBcemKd-83">
          <mxGeometry relative="1" as="geometry" />
        </mxCell>
        <mxCell id="K3HkH2EL4yBhqLBcemKd-66" value="&lt;span style=&quot;font-size: 50px;&quot;&gt;SimHeap[i] &amp;gt;= Size&lt;/span&gt;" style="rhombus;whiteSpace=wrap;html=1;" parent="1" vertex="1">
          <mxGeometry x="2205" y="-5860" width="280" height="200" as="geometry" />
        </mxCell>
        <mxCell id="i8Awva0lIzvKU5chbaIe-12" style="edgeStyle=orthogonalEdgeStyle;rounded=0;orthogonalLoop=1;jettySize=auto;html=1;exitX=0.5;exitY=1;exitDx=0;exitDy=0;" edge="1" parent="1" source="K3HkH2EL4yBhqLBcemKd-302" target="K3HkH2EL4yBhqLBcemKd-302">
          <mxGeometry relative="1" as="geometry" />
        </mxCell>
        <mxCell id="i8Awva0lIzvKU5chbaIe-22" value="&lt;font style=&quot;font-size: 40px;&quot;&gt;No&lt;/font&gt;" style="text;html=1;align=center;verticalAlign=middle;whiteSpace=wrap;rounded=0;" vertex="1" parent="1">
          <mxGeometry x="3110" y="-6030" width="60" height="30" as="geometry" />
        </mxCell>
        <mxCell id="i8Awva0lIzvKU5chbaIe-23" value="&lt;font style=&quot;font-size: 40px;&quot;&gt;No&lt;/font&gt;" style="text;html=1;align=center;verticalAlign=middle;whiteSpace=wrap;rounded=0;" vertex="1" parent="1">
          <mxGeometry x="3060" y="-5440" width="60" height="30" as="geometry" />
        </mxCell>
        <mxCell id="i8Awva0lIzvKU5chbaIe-24" value="&lt;font style=&quot;font-size: 40px;&quot;&gt;No&lt;/font&gt;" style="text;html=1;align=center;verticalAlign=middle;whiteSpace=wrap;rounded=0;" vertex="1" parent="1">
          <mxGeometry x="2570" y="-5450" width="60" height="30" as="geometry" />
        </mxCell>
        <mxCell id="i8Awva0lIzvKU5chbaIe-25" value="&lt;font style=&quot;font-size: 40px;&quot;&gt;No&lt;/font&gt;" style="text;html=1;align=center;verticalAlign=middle;whiteSpace=wrap;rounded=0;" vertex="1" parent="1">
          <mxGeometry x="2550" y="-5800" width="60" height="30" as="geometry" />
        </mxCell>
        <mxCell id="i8Awva0lIzvKU5chbaIe-26" value="&lt;font style=&quot;font-size: 40px;&quot;&gt;Yes&lt;/font&gt;" style="text;html=1;align=center;verticalAlign=middle;whiteSpace=wrap;rounded=0;" vertex="1" parent="1">
          <mxGeometry x="2240" y="-5600" width="60" height="30" as="geometry" />
        </mxCell>
        <mxCell id="i8Awva0lIzvKU5chbaIe-27" value="&lt;font style=&quot;font-size: 40px;&quot;&gt;Yes&lt;/font&gt;" style="text;html=1;align=center;verticalAlign=middle;whiteSpace=wrap;rounded=0;" vertex="1" parent="1">
          <mxGeometry x="2250" y="-5300" width="60" height="30" as="geometry" />
        </mxCell>
        <mxCell id="i8Awva0lIzvKU5chbaIe-28" value="&lt;font style=&quot;font-size: 40px;&quot;&gt;Yes&lt;/font&gt;" style="text;html=1;align=center;verticalAlign=middle;whiteSpace=wrap;rounded=0;" vertex="1" parent="1">
          <mxGeometry x="2800" y="-5290" width="60" height="30" as="geometry" />
        </mxCell>
        <mxCell id="i8Awva0lIzvKU5chbaIe-29" value="&lt;font style=&quot;font-size: 40px;&quot;&gt;Yes&lt;/font&gt;" style="text;html=1;align=center;verticalAlign=middle;whiteSpace=wrap;rounded=0;" vertex="1" parent="1">
          <mxGeometry x="2800" y="-5940" width="60" height="30" as="geometry" />
        </mxCell>
        <mxCell id="i8Awva0lIzvKU5chbaIe-31" value="" style="rounded=0;whiteSpace=wrap;html=1;" vertex="1" parent="1">
          <mxGeometry x="-4015" y="-6120" width="2630" height="60" as="geometry" />
        </mxCell>
        <mxCell id="i8Awva0lIzvKU5chbaIe-32" value="" style="rounded=0;whiteSpace=wrap;html=1;fillColor=#008a00;fontColor=#ffffff;strokeColor=#005700;" vertex="1" parent="1">
          <mxGeometry x="-3665" y="-6120" width="575" height="60" as="geometry" />
        </mxCell>
        <mxCell id="i8Awva0lIzvKU5chbaIe-34" value="&lt;font style=&quot;font-size: 50px;&quot;&gt;Head&lt;br&gt;X&lt;/font&gt;" style="text;html=1;align=center;verticalAlign=middle;whiteSpace=wrap;rounded=0;fillColor=#0050ef;fontColor=#ffffff;strokeColor=#001DBC;" vertex="1" parent="1">
          <mxGeometry x="-2850" y="-5980" width="180" height="140" as="geometry" />
        </mxCell>
        <mxCell id="i8Awva0lIzvKU5chbaIe-38" value="&lt;span style=&quot;font-size: 50px;&quot;&gt;break&lt;/span&gt;" style="text;html=1;align=center;verticalAlign=middle;whiteSpace=wrap;rounded=0;" vertex="1" parent="1">
          <mxGeometry x="-1685" y="-5970" width="170" height="70" as="geometry" />
        </mxCell>
        <mxCell id="i8Awva0lIzvKU5chbaIe-39" value="&lt;font style=&quot;font-size: 35px;&quot;&gt;new&lt;/font&gt;" style="rounded=0;whiteSpace=wrap;html=1;fillColor=#0050ef;strokeColor=#001DBC;fontColor=#ffffff;" vertex="1" parent="1">
          <mxGeometry x="-3750" y="-6120" width="85" height="60" as="geometry" />
        </mxCell>
        <mxCell id="i8Awva0lIzvKU5chbaIe-40" value="" style="endArrow=classic;html=1;rounded=0;" edge="1" parent="1">
          <mxGeometry width="50" height="50" relative="1" as="geometry">
            <mxPoint x="-1606" y="-5990" as="sourcePoint" />
            <mxPoint x="-1606" y="-6050" as="targetPoint" />
          </mxGeometry>
        </mxCell>
        <mxCell id="i8Awva0lIzvKU5chbaIe-41" value="" style="rounded=0;whiteSpace=wrap;html=1;fillColor=#fff2cc;strokeColor=#d6b656;" vertex="1" parent="1">
          <mxGeometry x="-1635" y="-6120" width="60" height="60" as="geometry" />
        </mxCell>
        <mxCell id="i8Awva0lIzvKU5chbaIe-42" value="" style="rounded=0;whiteSpace=wrap;html=1;fillColor=#008a00;fontColor=#ffffff;strokeColor=#005700;" vertex="1" parent="1">
          <mxGeometry x="-3025" y="-6120" width="200" height="60" as="geometry" />
        </mxCell>
        <mxCell id="i8Awva0lIzvKU5chbaIe-43" value="&lt;font style=&quot;font-size: 35px;&quot;&gt;md&lt;/font&gt;" style="rounded=0;whiteSpace=wrap;html=1;fillColor=#fff2cc;strokeColor=#d6b656;" vertex="1" parent="1">
          <mxGeometry x="-3095" y="-6120" width="70" height="60" as="geometry" />
        </mxCell>
        <mxCell id="i8Awva0lIzvKU5chbaIe-44" value="&lt;span style=&quot;font-size: 35px;&quot;&gt;!&lt;/span&gt;" style="rounded=0;whiteSpace=wrap;html=1;fillColor=#0050ef;strokeColor=#001DBC;fontColor=#ffffff;" vertex="1" parent="1">
          <mxGeometry x="-2765" y="-6120" width="60" height="60" as="geometry" />
        </mxCell>
        <mxCell id="i8Awva0lIzvKU5chbaIe-46" value="" style="rounded=0;whiteSpace=wrap;html=1;" vertex="1" parent="1">
          <mxGeometry x="-2645" y="-6120" width="210" height="60" as="geometry" />
        </mxCell>
        <mxCell id="i8Awva0lIzvKU5chbaIe-47" value="&lt;span style=&quot;font-size: 35px;&quot;&gt;z&lt;/span&gt;" style="rounded=0;whiteSpace=wrap;html=1;fillColor=#fff2cc;strokeColor=#d6b656;" vertex="1" parent="1">
          <mxGeometry x="-2705" y="-6120" width="60" height="60" as="geometry" />
        </mxCell>
        <mxCell id="i8Awva0lIzvKU5chbaIe-48" value="&lt;span style=&quot;font-size: 35px;&quot;&gt;md&lt;/span&gt;" style="rounded=0;whiteSpace=wrap;html=1;fillColor=#fff2cc;strokeColor=#d6b656;" vertex="1" parent="1">
          <mxGeometry x="-2825" y="-6120" width="60" height="60" as="geometry" />
        </mxCell>
        <mxCell id="i8Awva0lIzvKU5chbaIe-49" value="" style="endArrow=classic;html=1;rounded=0;" edge="1" parent="1">
          <mxGeometry width="50" height="50" relative="1" as="geometry">
            <mxPoint x="-2785" y="-6000" as="sourcePoint" />
            <mxPoint x="-2785" y="-6060" as="targetPoint" />
          </mxGeometry>
        </mxCell>
        <mxCell id="i8Awva0lIzvKU5chbaIe-50" value="" style="rounded=0;whiteSpace=wrap;html=1;fillColor=#008a00;fontColor=#ffffff;strokeColor=#005700;" vertex="1" parent="1">
          <mxGeometry x="-2375" y="-6120" width="200" height="60" as="geometry" />
        </mxCell>
        <mxCell id="i8Awva0lIzvKU5chbaIe-51" value="&lt;font style=&quot;font-size: 35px;&quot;&gt;md&lt;/font&gt;" style="rounded=0;whiteSpace=wrap;html=1;fillColor=#fff2cc;strokeColor=#d6b656;" vertex="1" parent="1">
          <mxGeometry x="-2445" y="-6120" width="70" height="60" as="geometry" />
        </mxCell>
        <mxCell id="i8Awva0lIzvKU5chbaIe-52" value="&lt;span style=&quot;font-size: 35px;&quot;&gt;x&lt;/span&gt;" style="rounded=0;whiteSpace=wrap;html=1;fillColor=#fff2cc;strokeColor=#d6b656;" vertex="1" parent="1">
          <mxGeometry x="-2115" y="-6120" width="60" height="60" as="geometry" />
        </mxCell>
        <mxCell id="i8Awva0lIzvKU5chbaIe-53" value="&lt;font style=&quot;font-size: 50px;&quot;&gt;Tail&lt;br&gt;Z&lt;/font&gt;" style="text;html=1;align=center;verticalAlign=middle;whiteSpace=wrap;rounded=0;" vertex="1" parent="1">
          <mxGeometry x="-2225" y="-5960" width="170" height="70" as="geometry" />
        </mxCell>
        <mxCell id="i8Awva0lIzvKU5chbaIe-54" value="" style="rounded=0;whiteSpace=wrap;html=1;" vertex="1" parent="1">
          <mxGeometry x="-1995" y="-6120" width="360" height="60" as="geometry" />
        </mxCell>
        <mxCell id="i8Awva0lIzvKU5chbaIe-55" value="&lt;span style=&quot;font-size: 35px;&quot;&gt;!&lt;/span&gt;" style="rounded=0;whiteSpace=wrap;html=1;fillColor=#fff2cc;strokeColor=#d6b656;" vertex="1" parent="1">
          <mxGeometry x="-2055" y="-6120" width="60" height="60" as="geometry" />
        </mxCell>
        <mxCell id="i8Awva0lIzvKU5chbaIe-56" value="&lt;span style=&quot;font-size: 35px;&quot;&gt;md&lt;/span&gt;" style="rounded=0;whiteSpace=wrap;html=1;fillColor=#fff2cc;strokeColor=#d6b656;" vertex="1" parent="1">
          <mxGeometry x="-2175" y="-6120" width="60" height="60" as="geometry" />
        </mxCell>
        <mxCell id="i8Awva0lIzvKU5chbaIe-57" value="" style="endArrow=classic;html=1;rounded=0;" edge="1" parent="1">
          <mxGeometry width="50" height="50" relative="1" as="geometry">
            <mxPoint x="-2135" y="-6000" as="sourcePoint" />
            <mxPoint x="-2135" y="-6060" as="targetPoint" />
          </mxGeometry>
        </mxCell>
        <mxCell id="i8Awva0lIzvKU5chbaIe-58" value="" style="rounded=0;whiteSpace=wrap;html=1;fillColor=#008a00;fontColor=#ffffff;strokeColor=#005700;" vertex="1" parent="1">
          <mxGeometry x="-3950" y="-6120" width="200" height="60" as="geometry" />
        </mxCell>
        <mxCell id="i8Awva0lIzvKU5chbaIe-59" value="&lt;font style=&quot;font-size: 35px;&quot;&gt;md&lt;/font&gt;" style="rounded=0;whiteSpace=wrap;html=1;fillColor=#fff2cc;strokeColor=#d6b656;" vertex="1" parent="1">
          <mxGeometry x="-4020" y="-6120" width="70" height="60" as="geometry" />
        </mxCell>
        <mxCell id="i8Awva0lIzvKU5chbaIe-60" value="&lt;span style=&quot;font-size: 50px;&quot;&gt;ptr-1&lt;/span&gt;" style="text;html=1;align=center;verticalAlign=middle;whiteSpace=wrap;rounded=0;" vertex="1" parent="1">
          <mxGeometry x="-3800" y="-5970" width="170" height="70" as="geometry" />
        </mxCell>
        <mxCell id="i8Awva0lIzvKU5chbaIe-61" value="" style="endArrow=classic;html=1;rounded=0;" edge="1" parent="1">
          <mxGeometry width="50" height="50" relative="1" as="geometry">
            <mxPoint x="-3721" y="-5990" as="sourcePoint" />
            <mxPoint x="-3721" y="-6050" as="targetPoint" />
          </mxGeometry>
        </mxCell>
        <mxCell id="i8Awva0lIzvKU5chbaIe-62" value="&lt;h1 style=&quot;margin-top: 0px; font-size: 45px;&quot;&gt;case 2&lt;/h1&gt;&lt;p style=&quot;&quot;&gt;&lt;span style=&quot;font-size: 45px;&quot;&gt;handle simulated array if tail is suitable to allocate this size&lt;/span&gt;&lt;br&gt;&lt;/p&gt;" style="text;html=1;whiteSpace=wrap;overflow=hidden;rounded=0;" vertex="1" parent="1">
          <mxGeometry x="-3920" y="-5680" width="1780" height="170" as="geometry" />
        </mxCell>
        <mxCell id="i8Awva0lIzvKU5chbaIe-63" value="" style="rounded=0;whiteSpace=wrap;html=1;" vertex="1" parent="1">
          <mxGeometry x="-3940" y="-4560" width="2630" height="60" as="geometry" />
        </mxCell>
        <mxCell id="i8Awva0lIzvKU5chbaIe-64" value="" style="rounded=0;whiteSpace=wrap;html=1;fillColor=#008a00;fontColor=#ffffff;strokeColor=#005700;" vertex="1" parent="1">
          <mxGeometry x="-3870" y="-4560" width="200" height="60" as="geometry" />
        </mxCell>
        <mxCell id="i8Awva0lIzvKU5chbaIe-65" value="&lt;span style=&quot;font-size: 35px;&quot;&gt;!&lt;/span&gt;" style="rounded=0;whiteSpace=wrap;html=1;fillColor=#fff2cc;strokeColor=#d6b656;" vertex="1" parent="1">
          <mxGeometry x="-3610" y="-4560" width="60" height="60" as="geometry" />
        </mxCell>
        <mxCell id="i8Awva0lIzvKU5chbaIe-66" value="&lt;font style=&quot;font-size: 50px;&quot;&gt;Head&lt;br&gt;y&lt;/font&gt;" style="text;html=1;align=center;verticalAlign=middle;whiteSpace=wrap;rounded=0;" vertex="1" parent="1">
          <mxGeometry x="-3720" y="-4400" width="170" height="70" as="geometry" />
        </mxCell>
        <mxCell id="i8Awva0lIzvKU5chbaIe-67" value="" style="rounded=0;whiteSpace=wrap;html=1;" vertex="1" parent="1">
          <mxGeometry x="-3490" y="-4560" width="415" height="60" as="geometry" />
        </mxCell>
        <mxCell id="i8Awva0lIzvKU5chbaIe-68" value="&lt;span style=&quot;font-size: 35px;&quot;&gt;Z&lt;/span&gt;" style="rounded=0;whiteSpace=wrap;html=1;fillColor=#0050ef;strokeColor=#001DBC;fontColor=#ffffff;" vertex="1" parent="1">
          <mxGeometry x="-3550" y="-4560" width="60" height="60" as="geometry" />
        </mxCell>
        <mxCell id="i8Awva0lIzvKU5chbaIe-69" value="&lt;span style=&quot;font-size: 35px;&quot;&gt;md&lt;/span&gt;" style="rounded=0;whiteSpace=wrap;html=1;fillColor=#fff2cc;strokeColor=#d6b656;" vertex="1" parent="1">
          <mxGeometry x="-3670" y="-4560" width="60" height="60" as="geometry" />
        </mxCell>
        <mxCell id="i8Awva0lIzvKU5chbaIe-70" value="" style="endArrow=classic;html=1;rounded=0;" edge="1" parent="1">
          <mxGeometry width="50" height="50" relative="1" as="geometry">
            <mxPoint x="-3630" y="-4440" as="sourcePoint" />
            <mxPoint x="-3630" y="-4500" as="targetPoint" />
          </mxGeometry>
        </mxCell>
        <mxCell id="i8Awva0lIzvKU5chbaIe-71" value="&lt;span style=&quot;font-size: 50px;&quot;&gt;break&lt;/span&gt;" style="text;html=1;align=center;verticalAlign=middle;whiteSpace=wrap;rounded=0;" vertex="1" parent="1">
          <mxGeometry x="-1470" y="-4410" width="170" height="70" as="geometry" />
        </mxCell>
        <mxCell id="i8Awva0lIzvKU5chbaIe-72" value="&lt;font style=&quot;font-size: 35px;&quot;&gt;md&lt;/font&gt;" style="rounded=0;whiteSpace=wrap;html=1;fillColor=#fff2cc;strokeColor=#d6b656;" vertex="1" parent="1">
          <mxGeometry x="-3940" y="-4560" width="70" height="60" as="geometry" />
        </mxCell>
        <mxCell id="i8Awva0lIzvKU5chbaIe-73" value="" style="endArrow=classic;html=1;rounded=0;" edge="1" parent="1">
          <mxGeometry width="50" height="50" relative="1" as="geometry">
            <mxPoint x="-1391" y="-4430" as="sourcePoint" />
            <mxPoint x="-1391" y="-4490" as="targetPoint" />
          </mxGeometry>
        </mxCell>
        <mxCell id="i8Awva0lIzvKU5chbaIe-74" value="" style="rounded=0;whiteSpace=wrap;html=1;fillColor=#fff2cc;strokeColor=#d6b656;" vertex="1" parent="1">
          <mxGeometry x="-1420" y="-4560" width="60" height="60" as="geometry" />
        </mxCell>
        <mxCell id="i8Awva0lIzvKU5chbaIe-75" value="" style="rounded=0;whiteSpace=wrap;html=1;fillColor=#008a00;fontColor=#ffffff;strokeColor=#005700;" vertex="1" parent="1">
          <mxGeometry x="-3005" y="-4560" width="200" height="60" as="geometry" />
        </mxCell>
        <mxCell id="i8Awva0lIzvKU5chbaIe-76" value="&lt;font style=&quot;font-size: 35px;&quot;&gt;md&lt;/font&gt;" style="rounded=0;whiteSpace=wrap;html=1;fillColor=#fff2cc;strokeColor=#d6b656;" vertex="1" parent="1">
          <mxGeometry x="-3075" y="-4560" width="70" height="60" as="geometry" />
        </mxCell>
        <mxCell id="i8Awva0lIzvKU5chbaIe-79" value="" style="rounded=0;whiteSpace=wrap;html=1;fillColor=#008a00;fontColor=#ffffff;strokeColor=#005700;" vertex="1" parent="1">
          <mxGeometry x="-2160" y="-4560" width="200" height="60" as="geometry" />
        </mxCell>
        <mxCell id="i8Awva0lIzvKU5chbaIe-80" value="&lt;font style=&quot;font-size: 35px;&quot;&gt;md&lt;/font&gt;" style="rounded=0;whiteSpace=wrap;html=1;fillColor=#fff2cc;strokeColor=#d6b656;" vertex="1" parent="1">
          <mxGeometry x="-2230" y="-4560" width="70" height="60" as="geometry" />
        </mxCell>
        <mxCell id="i8Awva0lIzvKU5chbaIe-81" value="&lt;span style=&quot;font-size: 35px;&quot;&gt;Y&lt;/span&gt;" style="rounded=0;whiteSpace=wrap;html=1;fillColor=#0050ef;strokeColor=#001DBC;fontColor=#ffffff;" vertex="1" parent="1">
          <mxGeometry x="-1900" y="-4560" width="60" height="60" as="geometry" />
        </mxCell>
        <mxCell id="i8Awva0lIzvKU5chbaIe-82" value="&lt;font style=&quot;font-size: 50px;&quot;&gt;Tail&lt;br&gt;Z&lt;/font&gt;" style="text;html=1;align=center;verticalAlign=middle;whiteSpace=wrap;rounded=0;" vertex="1" parent="1">
          <mxGeometry x="-2010" y="-4400" width="170" height="70" as="geometry" />
        </mxCell>
        <mxCell id="i8Awva0lIzvKU5chbaIe-83" value="" style="rounded=0;whiteSpace=wrap;html=1;" vertex="1" parent="1">
          <mxGeometry x="-1780" y="-4560" width="360" height="60" as="geometry" />
        </mxCell>
        <mxCell id="i8Awva0lIzvKU5chbaIe-84" value="&lt;span style=&quot;font-size: 35px;&quot;&gt;!&lt;/span&gt;" style="rounded=0;whiteSpace=wrap;html=1;fillColor=#fff2cc;strokeColor=#d6b656;" vertex="1" parent="1">
          <mxGeometry x="-1840" y="-4560" width="60" height="60" as="geometry" />
        </mxCell>
        <mxCell id="i8Awva0lIzvKU5chbaIe-85" value="&lt;span style=&quot;font-size: 35px;&quot;&gt;md&lt;/span&gt;" style="rounded=0;whiteSpace=wrap;html=1;fillColor=#fff2cc;strokeColor=#d6b656;" vertex="1" parent="1">
          <mxGeometry x="-1960" y="-4560" width="60" height="60" as="geometry" />
        </mxCell>
        <mxCell id="i8Awva0lIzvKU5chbaIe-86" value="" style="endArrow=classic;html=1;rounded=0;" edge="1" parent="1">
          <mxGeometry width="50" height="50" relative="1" as="geometry">
            <mxPoint x="-1920" y="-4440" as="sourcePoint" />
            <mxPoint x="-1920" y="-4500" as="targetPoint" />
          </mxGeometry>
        </mxCell>
        <mxCell id="i8Awva0lIzvKU5chbaIe-95" value="" style="rounded=0;whiteSpace=wrap;html=1;fillColor=#008a00;fontColor=#ffffff;strokeColor=#005700;" vertex="1" parent="1">
          <mxGeometry x="-2735" y="-4560" width="505" height="60" as="geometry" />
        </mxCell>
        <mxCell id="i8Awva0lIzvKU5chbaIe-96" value="&lt;font style=&quot;font-size: 35px;&quot;&gt;md&lt;/font&gt;" style="rounded=0;whiteSpace=wrap;html=1;fillColor=#fff2cc;strokeColor=#d6b656;" vertex="1" parent="1">
          <mxGeometry x="-2805" y="-4560" width="70" height="60" as="geometry" />
        </mxCell>
      </root>
    </mxGraphModel>
  </diagram>
</mxfile>
